<svg id="Capa_1" data-name="Capa 1" xmlns="http://www.w3.org/2000/svg" xmlns:xlink="http://www.w3.org/1999/xlink" viewBox="0 0 197.774 197.84"><defs><style>.cls-1,.cls-10,.cls-11,.cls-12,.cls-13,.cls-14,.cls-15,.cls-16,.cls-3,.cls-4,.cls-5,.cls-6,.cls-7,.cls-8,.cls-9{fill:none;}.cls-2{clip-path:url(#clip-path);}.cls-10,.cls-11,.cls-12,.cls-13,.cls-14,.cls-15,.cls-16,.cls-3,.cls-4,.cls-5,.cls-6,.cls-7,.cls-8,.cls-9{stroke:#434343;stroke-miterlimit:10;}.cls-3{stroke-width:0.704px;}.cls-4{stroke-width:0.688px;}.cls-5{stroke-width:0.672px;}.cls-6{stroke-width:0.656px;}.cls-7{stroke-width:0.641px;}.cls-8{stroke-width:0.625px;}.cls-9{stroke-width:0.609px;}.cls-10{stroke-width:0.593px;}.cls-11{stroke-width:0.577px;}.cls-12{stroke-width:0.561px;}.cls-13{stroke-width:0.546px;}.cls-14{stroke-width:0.53px;}.cls-15{stroke-width:0.514px;}.cls-16{stroke-width:0.498px;}.cls-17{fill:#434343;}</style><clipPath id="clip-path" transform="translate(-450.774 -73.465)"><rect class="cls-1" width="750" height="500"/></clipPath></defs><title>half-circle</title><g class="cls-2"><circle class="cls-3" cx="98.887" cy="98.954" r="98.535"/><circle class="cls-4" cx="98.887" cy="98.954" r="91.415"/><circle class="cls-5" cx="98.887" cy="98.954" r="84.295"/><circle class="cls-6" cx="98.887" cy="98.954" r="77.175"/><circle class="cls-7" cx="98.887" cy="98.954" r="70.056"/><circle class="cls-8" cx="98.887" cy="98.954" r="62.936"/><circle class="cls-9" cx="549.661" cy="172.419" r="55.816" transform="translate(-101.512 639.042) rotate(-87.058)"/><circle class="cls-10" cx="549.661" cy="172.419" r="48.696" transform="translate(-93.84 641.827) rotate(-87.87)"/><circle class="cls-11" cx="549.661" cy="172.419" r="41.577" transform="translate(-88.201 643.796) rotate(-88.464)"/><circle class="cls-12" cx="549.661" cy="172.419" r="34.457" transform="translate(-83.885 645.259) rotate(-88.918)"/><circle class="cls-13" cx="549.661" cy="172.419" r="27.337" transform="translate(-80.478 646.387) rotate(-89.275)"/><circle class="cls-14" cx="549.661" cy="172.419" r="20.217" transform="translate(-77.721 647.283) rotate(-89.563)"/><circle class="cls-15" cx="549.661" cy="172.419" r="13.097" transform="translate(-75.444 648.011) rotate(-89.801)"/><path class="cls-16" d="M543.683,172.419a5.978,5.978,0,1,1,5.978,5.978A5.978,5.978,0,0,1,543.683,172.419Z" transform="translate(-450.774 -73.465)"/><path class="cls-17" d="M550,73.466h-.076A98.535,98.535,0,0,0,451.389,172H550Z" transform="translate(-450.774 -73.465)"/><path class="cls-17" d="M549,73.466h.076A98.535,98.535,0,0,1,647.611,172H549Z" transform="translate(-450.774 -73.465)"/></g></svg>