<svg id="Capa_1" data-name="Capa 1" xmlns="http://www.w3.org/2000/svg" xmlns:xlink="http://www.w3.org/1999/xlink" viewBox="0 0 112.389 112.389"><defs><style>.cls-1{fill:none;}.cls-2{fill:#434343;}.cls-3{clip-path:url(#clip-path);}.cls-4{fill:url(#_10_ppp_20_2);}</style><clipPath id="clip-path" transform="translate(-33.704 -155.684)"><rect class="cls-1" width="750" height="500"/></clipPath><pattern id="_10_ppp_20_2" data-name="10 ppp 20% 2" width="28.8" height="28.801" patternTransform="translate(-15.628 -6.14) rotate(135) scale(0.781)" patternUnits="userSpaceOnUse" viewBox="0 0 28.8 28.801"><rect class="cls-1" width="28.8" height="28.801"/><path class="cls-2" d="M28.8,30.24A1.44,1.44,0,1,0,27.359,28.8,1.439,1.439,0,0,0,28.8,30.24Z"/><path class="cls-2" d="M14.4,30.24A1.44,1.44,0,1,0,12.96,28.8,1.44,1.44,0,0,0,14.4,30.24Z"/><path class="cls-2" d="M28.8,15.842A1.441,1.441,0,1,0,27.359,14.4,1.441,1.441,0,0,0,28.8,15.842Z"/><path class="cls-2" d="M14.4,15.842A1.441,1.441,0,1,0,12.96,14.4,1.443,1.443,0,0,0,14.4,15.842Z"/><path class="cls-2" d="M7.2,23.041A1.441,1.441,0,1,0,5.76,21.6,1.441,1.441,0,0,0,7.2,23.041Z"/><path class="cls-2" d="M21.6,23.041A1.441,1.441,0,1,0,20.159,21.6,1.44,1.44,0,0,0,21.6,23.041Z"/><path class="cls-2" d="M7.2,8.641A1.441,1.441,0,1,0,5.76,7.2,1.441,1.441,0,0,0,7.2,8.641Z"/><path class="cls-2" d="M21.6,8.641A1.441,1.441,0,1,0,20.159,7.2,1.44,1.44,0,0,0,21.6,8.641Z"/><path class="cls-2" d="M0,30.24A1.439,1.439,0,0,0,1.439,28.8,1.44,1.44,0,0,0,0,27.361,1.44,1.44,0,0,0-1.44,28.8,1.439,1.439,0,0,0,0,30.24Z"/><path class="cls-2" d="M0,15.842A1.441,1.441,0,0,0,1.439,14.4,1.439,1.439,0,0,0,0,12.961,1.439,1.439,0,0,0-1.44,14.4,1.441,1.441,0,0,0,0,15.842Z"/><path class="cls-2" d="M28.8,1.439A1.439,1.439,0,0,0,30.239,0,1.439,1.439,0,0,0,28.8-1.439,1.44,1.44,0,0,0,27.359,0,1.44,1.44,0,0,0,28.8,1.439Z"/><path class="cls-2" d="M14.4,1.439A1.44,1.44,0,0,0,15.84,0,1.44,1.44,0,0,0,14.4-1.439,1.438,1.438,0,0,0,12.96,0,1.438,1.438,0,0,0,14.4,1.439Z"/><path class="cls-2" d="M0,1.439A1.439,1.439,0,0,0,1.439,0,1.439,1.439,0,0,0,0-1.439,1.439,1.439,0,0,0-1.44,0,1.439,1.439,0,0,0,0,1.439Z"/></pattern></defs><title>straight-dotted-circle</title><g class="cls-3"><circle class="cls-4" cx="89.899" cy="211.879" r="56.194" transform="translate(-167.45 110.576) rotate(-80.676)"/></g></svg>